<?xml version="1.0" encoding="utf-8"?>
<!-- Generator: Adobe Illustrator 16.0.0, SVG Export Plug-In . SVG Version: 6.00 Build 0)  -->
<!DOCTYPE svg PUBLIC "-//W3C//DTD SVG 1.1//EN" "http://www.w3.org/Graphics/SVG/1.1/DTD/svg11.dtd">
<svg version="1.1" id="Layer_1" xmlns="http://www.w3.org/2000/svg" xmlns:xlink="http://www.w3.org/1999/xlink" x="0px" y="0px"
	 width="70px" height="70px" viewBox="-49.5 50.5 70 70" enable-background="new -49.5 50.5 70 70" xml:space="preserve">
<g id="XMLID_1_">
	<g>
		<path fill="#4E4E4E" d="M5.5,80.5c2.76,0,5,2.24,5,5s-2.24,5-5,5h-15v15c0,2.76-2.24,5-5,5s-5-2.24-5-5v-15l10-10H5.5z"/>
		<path fill="#E42659" d="M-9.5,65.5v15l-10,10h-15c-2.76,0-5-2.24-5-5s2.24-5,5-5h15v-15c0-2.76,2.24-5,5-5S-9.5,62.74-9.5,65.5z"
			/>
	</g>
	<g>
		
			<line fill="none" stroke="#FFFFFF" stroke-width="2" stroke-linecap="round" stroke-linejoin="round" x1="-19.5" y1="65.5" x2="-19.5" y2="80.5"/>
		
			<line fill="none" stroke="#FFFFFF" stroke-width="2" stroke-linecap="round" stroke-linejoin="round" x1="-19.5" y1="80.5" x2="-34.5" y2="80.5"/>
		
			<line fill="none" stroke="#FFFFFF" stroke-width="2" stroke-linecap="round" stroke-linejoin="round" x1="-34.5" y1="90.5" x2="-19.5" y2="90.5"/>
		<polyline fill="none" stroke="#FFFFFF" stroke-width="2" stroke-linecap="round" stroke-linejoin="round" points="-19.5,105.5 
			-19.5,90.5 -9.5,80.5 -9.5,65.5 		"/>
		
			<line fill="none" stroke="#FFFFFF" stroke-width="2" stroke-linecap="round" stroke-linejoin="round" x1="-9.5" y1="105.5" x2="-9.5" y2="90.5"/>
		
			<line fill="none" stroke="#FFFFFF" stroke-width="2" stroke-linecap="round" stroke-linejoin="round" x1="-9.5" y1="90.5" x2="5.5" y2="90.5"/>
		
			<line fill="none" stroke="#FFFFFF" stroke-width="2" stroke-linecap="round" stroke-linejoin="round" x1="-9.5" y1="80.5" x2="5.5" y2="80.5"/>
		<path fill="none" stroke="#FFFFFF" stroke-width="2" stroke-linecap="round" stroke-linejoin="round" d="M-9.5,65.5
			c0-2.76-2.24-5-5-5s-5,2.24-5,5"/>
		<path fill="none" stroke="#FFFFFF" stroke-width="2" stroke-linecap="round" stroke-linejoin="round" d="M5.5,80.5
			c2.76,0,5,2.24,5,5s-2.24,5-5,5"/>
		<path fill="none" stroke="#FFFFFF" stroke-width="2" stroke-linecap="round" stroke-linejoin="round" d="M-9.5,105.5
			c0,2.76-2.24,5-5,5s-5-2.24-5-5"/>
		<path fill="none" stroke="#FFFFFF" stroke-width="2" stroke-linecap="round" stroke-linejoin="round" d="M-34.5,90.5
			c-2.76,0-5-2.24-5-5s2.24-5,5-5"/>
	</g>
</g>
</svg>
