<?xml version="1.0" encoding="utf-8"?>
<!-- Generator: Adobe Illustrator 16.0.0, SVG Export Plug-In . SVG Version: 6.00 Build 0)  -->
<!DOCTYPE svg PUBLIC "-//W3C//DTD SVG 1.1//EN" "http://www.w3.org/Graphics/SVG/1.1/DTD/svg11.dtd">
<svg version="1.1" id="Layer_1" xmlns="http://www.w3.org/2000/svg" xmlns:xlink="http://www.w3.org/1999/xlink" x="0px" y="0px"
	 width="70px" height="70px" viewBox="-49.5 50.5 70 70" enable-background="new -49.5 50.5 70 70" xml:space="preserve">
<g id="XMLID_1_">
	<g>
		<path fill="#4E4E4E" d="M10.5,85.5c0,5.62-1.86,10.82-5,15l-40-30c4.56-6.07,11.82-10,20-10C-0.69,60.5,10.5,71.69,10.5,85.5z"/>
		<path fill="#E42659" d="M-34.5,70.5l40,30c-4.56,6.07-11.82,10-20,10c-13.81,0-25-11.19-25-25C-39.5,79.88-37.64,74.68-34.5,70.5z
			"/>
	</g>
	<g>
		<path fill="none" stroke="#000000" stroke-width="2" stroke-miterlimit="10" d="M-34.5,70.5c4.56-6.07,11.82-10,20-10
			c13.81,0,25,11.19,25,25c0,5.62-1.86,10.82-5,15c-4.56,6.07-11.82,10-20,10c-13.81,0-25-11.19-25-25
			C-39.5,79.88-37.64,74.68-34.5,70.5z"/>
		<line fill="none" stroke="#000000" stroke-width="2" stroke-miterlimit="10" x1="-34.5" y1="70.5" x2="5.5" y2="100.5"/>
	</g>
</g>
</svg>
