<?xml version="1.0" encoding="utf-8"?>
<!-- Generator: Adobe Illustrator 16.0.0, SVG Export Plug-In . SVG Version: 6.00 Build 0)  -->
<!DOCTYPE svg PUBLIC "-//W3C//DTD SVG 1.1//EN" "http://www.w3.org/Graphics/SVG/1.1/DTD/svg11.dtd">
<svg version="1.1" id="Layer_1" xmlns="http://www.w3.org/2000/svg" xmlns:xlink="http://www.w3.org/1999/xlink" x="0px" y="0px"
	 width="70px" height="70px" viewBox="0 0 70 70" enable-background="new 0 0 70 70" xml:space="preserve">
<g id="XMLID_1_">
	<g>
		<path fill="#4E4E4E" d="M15,20c4.561-6.07,11.82-10,20-10c13.81,0,25,11.189,25,25c0,5.62-1.859,10.82-5,15L15,20z"/>
		<path fill="#E42659" d="M15,20l40,30c-4.561,6.07-11.82,10-20,10C21.19,60,10,48.811,10,35C10,29.38,11.86,24.18,15,20z"/>
	</g>
	<g>
		<path fill="none" stroke="#FFFFFF" stroke-width="2" stroke-miterlimit="10" d="M15,20c4.561-6.07,11.82-10,20-10
			c13.81,0,25,11.189,25,25c0,5.62-1.859,10.82-5,15c-4.561,6.07-11.82,10-20,10C21.19,60,10,48.811,10,35
			C10,29.38,11.86,24.18,15,20z"/>
		<line fill="none" stroke="#FFFFFF" stroke-width="2" stroke-miterlimit="10" x1="55" y1="50" x2="15" y2="20"/>
	</g>
</g>
</svg>
