<?xml version="1.0" encoding="utf-8"?>
<!-- Generator: Adobe Illustrator 16.0.0, SVG Export Plug-In . SVG Version: 6.00 Build 0)  -->
<!DOCTYPE svg PUBLIC "-//W3C//DTD SVG 1.1//EN" "http://www.w3.org/Graphics/SVG/1.1/DTD/svg11.dtd">
<svg version="1.1" id="Layer_1" xmlns="http://www.w3.org/2000/svg" xmlns:xlink="http://www.w3.org/1999/xlink" x="0px" y="0px"
	 width="70px" height="70px" viewBox="-49.5 50.5 70 70" enable-background="new -49.5 50.5 70 70" xml:space="preserve">
<g id="XMLID_1_">
	<g>
		<path fill="#4E4E4E" d="M0.5,65.5c6.07,4.56,10,11.82,10,20c0,13.81-11.19,25-25,25c-5.62,0-10.82-1.86-15-5L0.5,65.5z"/>
		<path fill="#E42659" d="M0.5,65.5l-30,40c-6.07-4.56-10-11.82-10-20c0-13.81,11.19-25,25-25C-8.88,60.5-3.68,62.36,0.5,65.5z"/>
	</g>
	<g>
		<path fill="none" stroke="#FFFFFF" stroke-width="2" stroke-miterlimit="10" d="M0.5,65.5c6.07,4.56,10,11.82,10,20
			c0,13.81-11.19,25-25,25c-5.62,0-10.82-1.86-15-5c-6.07-4.56-10-11.82-10-20c0-13.81,11.19-25,25-25
			C-8.88,60.5-3.68,62.36,0.5,65.5z"/>
		<line fill="none" stroke="#FFFFFF" stroke-width="2" stroke-miterlimit="10" x1="-29.5" y1="105.5" x2="0.5" y2="65.5"/>
	</g>
</g>
</svg>
